{"glyphs":{":":{"x_min":0,"x_max":273,"ha":273,"o":"m 94 367 l 116 505 l 231 505 l 209 367 z m 36 0 l 58 137 l 173 137 l 151 0 z"},"$":{"x_min":0,"x_max":456,"ha":456,"o":"m 433 231 q 433 177 417 137 q 402 96 373 69 q 344 42 302 27 q 260 13 207 10 l 193 -74 l 148 -74 l 161 11 q 128 11 99 22 q 70 33 48 55 q 25 76 12 107 q -2 139 -4 179 l 101 199 q 104 156 123 135 q 142 113 178 113 l 208 302 q 177 312 149 327 q 122 342 102 365 q 81 387 69 416 q 58 445 58 482 q 58 520 67 549 q 76 578 91 600 q 107 622 128 637 q 148 653 172 662 q 195 672 220 676 q 246 681 269 681 l 279 742 l 323 740 l 312 677 q 348 677 375 666 q 402 654 421 635 q 440 615 450 589 q 461 562 463 532 l 359 504 q 355 525 349 540 q 343 555 334 564 q 326 573 316 577 q 306 581 297 581 l 270 409 q 307 398 336 383 q 366 368 388 346 q 409 325 421 297 q 433 269 433 231 z m 324 202 q 324 239 307 259 q 289 279 251 290 l 222 113 q 242 113 260 118 q 279 124 293 135 q 308 146 316 162 q 324 179 324 202 z m 165 491 q 165 477 169 466 q 173 456 181 448 q 189 439 200 433 q 212 427 227 421 l 253 583 q 233 583 217 576 q 200 569 189 556 q 177 544 171 527 q 165 510 165 491 z"},"?":{"x_min":0,"x_max":501,"ha":501,"o":"m 298 698 q 340 698 374 687 q 409 675 433 653 q 458 631 471 599 q 484 567 484 525 q 484 483 471 451 q 458 419 437 394 q 416 368 390 348 q 364 328 337 310 q 337 310 312 289 q 299 279 290 267 q 281 255 275 241 q 269 227 267 208 l 160 208 q 165 242 175 267 q 186 292 200 312 q 215 332 234 349 q 253 365 276 383 q 304 404 322 420 q 340 436 351 451 q 362 466 366 481 q 371 496 371 515 q 371 546 352 566 q 333 586 292 586 q 248 586 219 564 q 191 541 180 492 l 74 512 q 84 555 103 589 q 121 624 149 648 q 177 672 214 685 q 250 698 298 698 z m 124 0 l 145 132 l 260 132 l 239 0 z"},"<":{"x_min":0,"x_max":479,"ha":479,"o":"m 50 252 l 50 409 l 461 600 l 461 489 l 127 330 l 461 172 l 461 61 z"},"'":{"x_min":0,"x_max":195,"ha":195,"o":"m 167 438 l 79 438 l 108 688 l 217 688 z"},"=":{"x_min":0,"x_max":479,"ha":479,"o":"m 49 411 l 49 520 l 460 520 l 460 411 z m 49 142 l 49 250 l 460 250 l 460 142 z"},"a":{"x_min":0,"x_max":456,"ha":456,"o":"m 426 6 q 410 -2 392 -3 q 375 -5 357 -5 q 317 -5 295 16 q 274 36 274 70 q 274 77 274 85 q 275 93 276 101 l 273 101 q 260 75 246 55 q 232 34 215 20 q 198 5 177 -2 q 155 -10 127 -10 q 96 -10 73 2 q 50 15 34 35 q 19 55 11 82 q 4 108 4 136 q 4 175 13 204 q 22 233 38 253 q 53 274 74 287 q 95 300 119 307 q 144 314 169 317 q 195 320 221 321 l 297 322 l 300 340 q 303 354 304 365 q 306 376 306 386 q 306 418 292 434 q 278 449 255 449 q 243 449 231 447 q 218 445 207 438 q 196 431 187 417 q 178 403 173 379 l 68 395 q 74 427 89 454 q 104 480 127 499 q 150 518 182 528 q 214 538 257 538 q 340 538 378 502 q 417 467 417 394 q 417 379 414 358 q 411 337 407 317 l 379 145 q 379 145 377 127 q 375 118 375 110 q 375 98 380 92 q 384 85 389 83 q 394 80 399 79 q 404 78 407 78 q 413 78 418 79 q 423 79 432 82 z m 285 246 l 220 246 q 173 245 146 222 q 119 200 119 159 q 119 140 124 126 q 128 112 136 103 q 145 94 155 90 q 166 86 177 86 q 189 86 203 92 q 217 97 231 110 q 245 124 257 146 q 269 168 276 201 z"},"L":{"x_min":0,"x_max":501,"ha":501,"o":"m 15 0 l 124 688 l 242 688 l 150 111 l 453 111 l 435 0 z"},"3":{"x_min":0,"x_max":456,"ha":456,"o":"m 214 405 q 233 405 254 409 q 275 413 292 424 q 310 436 321 457 q 333 479 333 513 q 333 548 317 569 q 302 589 270 589 q 233 589 209 567 q 186 545 175 499 l 68 524 q 79 570 98 603 q 117 636 143 657 q 168 678 202 688 q 235 698 274 698 q 315 698 347 687 q 379 675 402 654 q 424 632 435 601 q 447 570 447 530 q 447 493 437 462 q 428 432 409 409 q 391 386 364 372 q 337 358 302 354 l 302 352 q 327 347 348 336 q 368 324 383 306 q 397 287 405 262 q 413 236 413 204 q 413 162 399 123 q 385 84 359 54 q 333 25 294 8 q 255 -10 205 -10 q 155 -10 119 3 q 83 17 59 40 q 35 64 22 96 q 9 129 6 167 l 119 186 q 122 162 129 145 q 136 129 147 119 q 159 109 175 105 q 190 101 210 101 q 232 101 249 108 q 266 116 277 130 q 288 144 293 162 q 298 181 298 203 q 298 249 277 271 q 255 294 210 294 l 167 294 l 185 405 z"},";":{"x_min":0,"x_max":273,"ha":273,"o":"m 94 367 l 116 505 l 231 505 l 209 367 z m 156 32 q 151 0 144 -27 q 137 -54 127 -77 q 118 -100 107 -119 q 96 -138 83 -155 l 9 -155 q 23 -138 36 -119 q 49 -100 59 -80 q 70 -60 77 -40 q 84 -20 87 0 l 36 0 l 58 137 l 173 137 z"},"J":{"x_min":0,"x_max":456,"ha":456,"o":"m 192 -10 q 150 -10 119 4 q 88 18 66 43 q 43 68 30 104 q 17 140 10 185 l 117 213 q 121 189 127 169 q 134 149 144 134 q 154 120 167 111 q 181 103 200 103 q 220 103 233 112 q 246 122 255 137 q 264 152 269 173 q 274 193 277 215 l 335 575 l 222 575 l 240 688 l 470 688 l 393 207 q 384 153 369 113 q 354 73 330 45 q 306 18 272 4 q 238 -10 192 -10 z"},"V":{"x_min":0,"x_max":547,"ha":547,"o":"m 295 0 l 159 0 l 68 688 l 190 688 l 236 246 q 238 224 240 201 q 241 178 243 159 q 244 137 245 116 q 245 116 260 158 q 260 158 276 200 l 294 246 l 481 688 l 604 688 z"},"\"":{"x_min":0,"x_max":389,"ha":389,"o":"m 346 438 l 258 438 l 288 688 l 397 688 z m 176 438 l 88 438 l 117 688 l 226 688 z"},"7":{"x_min":0,"x_max":456,"ha":456,"o":"m 75 688 l 488 688 l 471 579 q 471 579 406 484 l 347 396 q 319 352 295 308 q 271 264 250 216 q 230 168 215 115 q 199 62 189 0 l 70 0 q 84 89 111 164 q 139 239 176 307 q 213 375 260 440 l 357 575 l 57 575 z"},"S":{"x_min":0,"x_max":547,"ha":547,"o":"m 240 -10 q 186 -10 145 2 q 104 14 76 37 q 48 61 32 96 q 16 131 10 178 l 125 202 q 129 176 138 156 q 147 137 162 124 q 177 111 198 104 q 219 98 248 98 q 278 98 304 103 q 330 108 348 119 q 366 131 376 149 q 386 168 386 195 q 386 218 379 234 q 371 250 356 262 q 341 274 319 283 q 297 292 267 302 q 229 314 197 329 q 164 344 139 367 q 114 391 100 424 q 85 458 85 506 q 85 553 103 589 q 121 625 152 649 q 184 673 225 686 q 267 698 314 698 q 366 698 405 686 q 444 674 472 653 q 500 631 516 600 q 532 570 539 533 l 423 500 q 415 544 385 570 q 355 596 308 596 q 282 596 262 590 q 242 583 229 572 q 215 561 208 545 q 202 530 202 511 q 202 489 211 474 q 220 459 236 449 q 251 438 273 430 q 295 421 322 413 q 342 406 364 398 q 385 390 405 379 q 425 368 443 353 q 460 338 474 317 q 487 296 494 269 q 502 242 502 207 q 502 155 486 115 q 470 75 438 47 q 405 20 356 5 q 307 -10 240 -10 z"},"}":{"x_min":0,"x_max":319,"ha":319,"o":"m 160 725 q 183 725 202 718 q 221 710 234 696 q 248 682 255 661 q 262 641 262 616 q 262 608 261 594 q 260 579 258 567 l 233 417 q 232 407 231 399 q 230 391 230 383 q 230 362 236 348 q 241 333 251 324 q 261 315 275 311 q 290 307 307 306 l 292 212 q 271 212 253 206 q 235 200 221 187 q 207 173 197 152 q 187 131 183 101 l 156 -63 q 150 -100 139 -126 q 127 -153 111 -171 q 94 -189 70 -198 q 46 -208 16 -208 l -62 -208 l -47 -115 l -17 -115 q 1 -115 14 -108 q 26 -102 35 -90 q 43 -77 49 -58 q 55 -40 59 -15 l 83 137 q 87 161 97 182 q 107 202 121 218 q 134 233 151 243 q 168 253 186 258 l 186 259 q 172 264 160 272 q 148 280 139 292 q 130 305 125 320 q 121 336 121 355 q 121 361 121 367 q 122 374 123 380 l 149 543 q 150 550 151 561 q 152 572 152 581 q 152 606 139 619 q 126 632 104 632 l 72 632 l 86 725 z"},"Z":{"x_min":0,"x_max":501,"ha":501,"o":"m 433 0 l -19 0 l -3 102 l 368 575 l 103 575 l 121 688 l 526 688 l 511 588 l 138 113 l 451 113 z"},"x":{"x_min":0,"x_max":456,"ha":456,"o":"m 290 0 l 215 187 l 84 0 l -36 0 l 167 274 l 56 528 l 172 528 l 242 359 l 360 528 l 484 528 l 291 272 l 408 0 z"},")":{"x_min":0,"x_max":273,"ha":273,"o":"m -72 -208 q 31 -84 84 65 q 138 214 138 395 q 138 434 134 476 q 130 519 123 562 q 115 605 104 647 q 93 688 79 725 l 185 725 q 214 652 232 566 q 249 481 249 387 q 249 298 236 215 q 223 132 197 56 q 170 -19 131 -85 q 92 -152 41 -208 z"},"&":{"x_min":0,"x_max":592,"ha":592,"o":"m 20 173 q 20 215 32 250 q 45 284 68 311 q 91 338 122 359 q 153 380 190 396 q 188 405 185 417 q 183 430 181 444 q 179 458 177 474 q 176 490 176 506 q 176 546 187 580 q 198 614 220 639 q 242 664 274 678 q 306 692 347 692 q 377 692 402 684 q 427 676 445 660 q 462 645 472 621 q 482 598 482 566 q 482 525 467 493 q 451 462 426 437 q 400 413 366 393 q 332 374 294 355 q 300 334 307 314 q 313 294 322 275 q 330 255 340 235 q 350 214 363 193 q 393 231 415 275 q 438 319 457 371 l 532 331 q 522 303 510 276 q 498 249 483 223 q 469 197 453 173 q 438 148 420 127 q 437 111 455 104 q 474 96 494 96 q 506 96 518 98 q 529 100 539 104 l 523 5 q 510 0 497 -3 q 484 -6 467 -6 q 431 -6 401 9 q 371 23 345 51 q 333 40 319 28 q 305 17 287 9 q 269 0 244 -5 q 219 -10 186 -10 q 105 -10 62 37 q 20 84 20 173 z m 197 83 q 211 83 224 86 q 237 89 249 95 q 261 101 272 107 q 282 114 290 122 q 276 144 264 168 q 252 192 242 216 q 232 240 224 264 q 216 287 210 308 q 194 299 178 288 q 162 277 150 261 q 137 246 129 225 q 122 204 122 176 q 122 155 127 137 q 133 120 143 108 q 152 96 167 90 q 181 83 197 83 z m 267 508 q 267 487 269 470 q 271 453 275 438 q 300 449 322 460 q 343 472 359 485 q 375 499 383 517 q 392 534 392 558 q 392 583 379 596 q 365 609 342 609 q 327 609 313 603 q 299 596 289 584 q 278 571 273 552 q 267 533 267 508 z"},"_":{"x_min":0,"x_max":456,"ha":456,"o":"m -48 -122 l -48 -84 l 423 -84 l 423 -122 z"},"v":{"x_min":0,"x_max":456,"ha":456,"o":"m 249 0 l 115 0 l 44 528 l 160 528 l 188 233 q 189 218 191 201 q 192 183 194 166 q 195 148 196 131 q 197 115 197 102 q 197 102 207 131 l 220 165 l 233 200 l 246 231 l 373 528 l 493 528 z"},"O":{"x_min":0,"x_max":638,"ha":638,"o":"m 372 698 q 431 698 478 678 q 525 659 558 622 q 590 585 607 533 q 625 480 625 416 q 625 392 623 366 q 621 340 617 317 q 604 242 576 181 q 548 121 506 79 q 464 36 410 13 q 356 -10 291 -10 q 229 -10 183 11 q 136 33 104 71 q 72 109 56 163 q 40 216 40 280 q 40 302 42 326 q 43 349 48 373 q 60 446 88 506 q 115 566 156 609 q 198 652 252 675 q 306 698 372 698 z m 366 584 q 323 584 290 569 q 256 553 231 524 q 207 495 190 452 q 174 409 166 355 q 163 337 161 319 q 160 300 160 284 q 160 194 196 149 q 232 104 297 104 q 340 104 374 119 q 407 135 432 165 q 457 195 473 237 q 490 279 498 332 q 501 350 502 370 q 503 390 503 404 q 503 449 493 483 q 483 517 466 539 q 448 562 423 573 q 397 584 366 584 z"},"(":{"x_min":0,"x_max":273,"ha":273,"o":"m 350 725 q 247 604 193 459 q 140 313 140 137 q 140 42 155 -45 q 169 -131 199 -208 l 89 -208 q 60 -131 45 -42 q 30 46 30 145 q 30 232 43 313 q 56 394 82 468 q 107 541 146 606 q 186 670 237 725 z"},"C":{"x_min":0,"x_max":592,"ha":592,"o":"m 161 280 q 161 239 169 206 q 177 173 194 150 q 210 127 235 115 q 260 103 292 103 q 324 103 349 113 q 375 124 396 141 q 416 159 432 181 q 448 204 460 229 l 551 172 q 534 135 510 102 q 485 68 453 44 q 420 19 379 5 q 337 -10 285 -10 q 222 -10 176 13 q 129 35 99 74 q 69 113 55 165 q 40 218 40 278 q 40 338 51 393 q 61 448 81 494 q 101 541 129 579 q 158 617 195 643 q 231 669 276 684 q 320 698 371 698 q 426 698 466 683 q 505 667 533 641 q 561 614 577 580 q 593 545 602 507 l 492 472 q 487 494 477 514 q 467 534 452 550 q 437 566 416 575 q 395 585 367 585 q 317 585 278 563 q 240 541 214 500 q 188 460 174 404 q 161 348 161 280 z"},"W":{"x_min":0,"x_max":774,"ha":774,"o":"m 577 0 l 437 0 l 426 396 q 426 402 426 419 q 425 437 425 458 q 424 480 424 504 q 424 527 424 545 q 424 545 407 489 q 403 477 399 465 l 392 440 q 388 428 384 417 q 380 407 377 398 l 238 0 l 96 0 l 60 688 l 172 688 l 187 290 q 188 267 188 237 l 189 182 q 189 152 189 121 l 212 191 q 212 191 223 222 l 232 252 l 242 281 l 251 307 l 385 688 l 511 688 l 524 251 q 525 230 525 208 q 526 186 527 166 q 528 143 528 121 q 528 121 546 178 q 546 178 563 233 l 582 291 l 716 688 l 833 688 z"},"A":{"x_min":0,"x_max":592,"ha":592,"o":"m 416 0 l 394 176 l 179 176 l 101 0 l -17 0 l 298 688 l 438 688 l 533 0 z m 358 505 q 357 512 355 523 l 354 546 q 352 557 351 567 q 351 577 351 582 q 349 576 345 564 l 335 538 q 330 523 323 507 l 312 479 l 227 284 l 385 284 z"},"f":{"x_min":0,"x_max":273,"ha":273,"o":"m 211 436 l 142 0 l 30 0 l 99 436 l 36 436 l 51 528 l 114 528 l 123 583 q 128 617 139 643 q 149 669 168 688 q 187 706 214 715 q 241 725 279 725 q 297 725 313 722 q 330 719 341 716 l 327 628 q 324 629 318 630 l 308 631 q 303 632 297 632 q 292 633 289 633 q 262 633 250 617 q 238 602 232 570 l 226 528 l 312 528 l 296 436 z"},"Q":{"x_min":0,"x_max":638,"ha":638,"o":"m 372 698 q 431 698 478 678 q 525 659 558 622 q 590 585 607 533 q 625 480 625 416 q 625 392 623 366 q 621 340 617 317 q 606 251 583 197 q 560 142 526 101 q 492 60 449 33 q 405 6 354 -4 q 361 -52 379 -73 q 397 -95 433 -95 q 440 -95 448 -94 q 456 -94 464 -93 q 472 -92 480 -91 q 487 -89 493 -88 l 475 -183 q 463 -188 445 -192 q 427 -195 407 -195 q 363 -195 332 -182 q 300 -168 280 -143 q 260 -118 249 -83 q 238 -47 234 -4 q 187 5 150 30 q 114 54 90 91 q 65 128 52 176 q 40 224 40 280 q 40 302 42 326 q 43 349 48 373 q 60 446 88 506 q 115 566 156 609 q 198 652 252 675 q 306 698 372 698 z m 366 584 q 323 584 290 569 q 256 553 231 524 q 207 495 190 452 q 174 409 166 355 q 163 337 161 319 q 160 300 160 284 q 160 194 196 149 q 232 104 297 104 q 340 104 374 119 q 407 135 432 165 q 457 195 473 237 q 490 279 498 332 q 501 350 502 370 q 503 390 503 404 q 503 449 493 483 q 483 517 466 539 q 448 562 423 573 q 397 584 366 584 z"},"w":{"x_min":0,"x_max":638,"ha":638,"o":"m 483 0 l 365 0 l 347 322 q 346 337 346 357 q 346 376 346 394 q 345 414 345 435 q 339 414 332 394 q 332 394 320 356 q 313 337 307 321 l 187 0 l 67 0 l 40 528 l 143 528 l 148 218 q 149 205 149 188 q 148 172 148 158 l 148 125 l 160 158 q 160 158 170 188 q 175 205 180 218 l 298 528 l 418 528 l 436 218 q 437 205 437 189 q 437 173 437 159 q 438 142 438 125 q 443 142 449 159 l 459 189 l 468 218 l 575 528 l 682 528 z"},"-":{"x_min":0,"x_max":273,"ha":273,"o":"m 22 200 l 41 319 l 250 319 l 230 200 z"},"E":{"x_min":0,"x_max":547,"ha":547,"o":"m 15 0 l 124 688 l 567 688 l 550 577 l 224 577 l 197 404 l 498 404 l 480 292 l 179 292 l 150 111 l 492 111 l 474 0 z"},"s":{"x_min":0,"x_max":456,"ha":456,"o":"m 400 163 q 400 120 387 87 q 374 55 348 33 q 322 12 284 1 q 247 -10 199 -10 q 119 -10 72 25 q 25 60 9 132 l 110 150 q 114 132 121 119 q 128 106 140 98 q 151 89 168 85 q 185 81 207 81 q 227 81 243 85 q 259 88 271 96 q 283 104 289 117 q 296 130 296 147 q 296 163 291 173 q 285 183 274 190 q 263 197 246 203 q 229 208 206 214 q 174 223 148 235 q 121 248 102 266 q 83 285 72 312 q 61 338 61 375 q 61 419 76 450 q 91 480 117 500 q 144 519 179 528 q 214 537 255 537 q 292 537 322 530 q 352 522 374 506 q 395 489 409 462 q 423 436 428 396 l 328 382 q 321 416 301 431 q 281 446 248 446 q 230 446 215 443 q 200 440 189 434 q 178 427 172 416 q 166 404 166 387 q 166 372 173 361 q 181 351 194 343 q 208 335 227 330 l 268 318 q 295 310 320 299 q 344 288 362 270 q 380 252 390 226 q 400 200 400 163 z"},">":{"x_min":0,"x_max":479,"ha":479,"o":"m 50 61 l 50 172 l 383 330 l 50 489 l 50 600 l 461 409 l 461 252 z"},"l":{"x_min":0,"x_max":228,"ha":228,"o":"m 14 0 l 129 725 l 242 725 l 126 0 z"},"8":{"x_min":0,"x_max":456,"ha":456,"o":"m 283 698 q 324 698 355 686 q 387 674 409 653 q 431 631 443 601 q 455 570 455 533 q 455 500 446 471 q 438 442 421 420 q 405 397 382 383 q 358 368 328 363 l 328 361 q 349 354 365 340 q 382 327 394 308 q 406 290 413 265 q 420 241 420 211 q 420 164 406 123 q 392 83 364 53 q 336 24 295 7 q 253 -10 197 -10 q 149 -10 114 4 q 79 18 56 43 q 33 68 22 102 q 11 136 11 176 q 11 221 24 253 q 38 285 59 307 q 80 329 105 341 q 130 354 155 360 l 155 362 q 118 382 99 421 q 80 460 80 514 q 80 556 94 590 q 107 625 134 648 q 160 672 198 685 q 235 698 283 698 z m 259 410 q 283 410 299 421 q 315 431 324 447 q 333 463 337 483 q 341 502 341 520 q 341 559 324 580 q 307 602 272 602 q 255 602 240 595 q 225 589 214 577 q 203 564 197 544 q 190 525 190 498 q 190 482 194 467 q 197 451 205 438 q 212 426 226 418 q 239 410 259 410 z m 225 312 q 201 312 182 303 q 164 294 152 277 q 140 260 133 237 q 127 213 127 184 q 127 163 132 145 q 137 127 147 115 q 157 102 172 94 q 188 87 208 87 q 228 87 246 95 q 263 104 276 120 q 289 136 297 160 q 304 185 304 217 q 304 235 301 252 q 297 269 287 282 q 278 296 263 304 q 248 312 225 312 z"},"\\":{"x_min":0,"x_max":228,"ha":228,"o":"m 116 -20 l 44 725 l 140 725 l 213 -20 z"},"e":{"x_min":0,"x_max":456,"ha":456,"o":"m 144 232 q 142 222 141 211 q 141 200 141 189 q 141 137 159 110 q 178 82 214 82 q 231 82 244 88 q 257 95 268 106 q 278 117 286 132 q 294 147 299 165 l 397 128 q 385 97 370 72 q 355 46 333 28 q 311 10 280 0 q 250 -10 207 -10 q 163 -10 129 5 q 95 21 72 48 q 49 76 37 116 q 25 155 25 204 q 25 284 43 346 q 60 408 91 451 q 122 494 165 516 q 208 538 259 538 q 304 538 336 523 q 369 509 391 482 q 413 456 423 419 q 433 382 433 337 q 433 315 431 287 q 428 258 424 232 z m 329 324 q 330 332 330 338 q 331 344 331 351 q 331 403 311 427 q 291 451 259 451 q 245 451 230 446 q 215 440 200 426 q 186 412 175 387 q 164 362 157 324 z"},"b":{"x_min":0,"x_max":501,"ha":501,"o":"m 342 538 q 375 538 400 526 q 425 514 442 491 q 459 469 469 437 q 478 405 478 365 l 478 358 q 478 335 475 308 q 473 280 469 252 q 458 183 440 133 q 422 83 397 52 q 373 20 340 5 q 308 -10 268 -10 q 218 -10 187 16 q 155 41 143 87 l 142 87 q 142 87 136 60 q 133 45 130 33 l 125 11 q 124 2 123 0 l 14 0 q 15 4 17 15 l 21 40 l 27 72 q 31 90 34 109 l 132 725 l 245 725 l 211 516 l 202 465 q 199 446 198 446 l 200 446 q 222 487 258 512 q 294 538 342 538 z m 294 443 q 273 443 254 435 q 235 427 219 407 q 203 388 190 354 q 178 321 170 271 q 167 249 165 230 q 163 212 163 196 q 163 168 169 148 q 175 127 185 113 q 196 99 211 92 q 226 84 244 84 q 264 84 280 92 q 296 100 309 118 q 322 137 333 170 q 343 202 351 252 q 355 277 358 299 q 360 320 360 339 q 360 390 346 417 q 332 443 294 443 z"},"%":{"x_min":0,"x_max":729,"ha":729,"o":"m 219 694 q 244 694 266 686 q 289 678 306 660 q 323 643 333 614 q 342 585 342 543 q 342 525 340 503 q 337 480 332 457 q 321 395 301 356 q 281 317 258 295 q 234 272 209 264 q 184 256 163 256 q 138 256 116 265 q 95 273 79 292 q 63 311 54 340 q 45 370 45 411 q 45 429 47 451 q 50 473 55 496 q 65 560 84 599 q 104 638 126 659 q 149 680 173 687 q 198 694 219 694 z m 218 620 q 206 620 195 615 q 183 610 173 596 q 163 583 154 557 q 146 532 139 491 q 134 465 132 444 q 130 422 130 404 q 130 368 139 351 q 148 334 165 334 q 177 334 188 340 q 200 345 210 359 q 221 373 230 397 q 239 422 246 461 q 257 515 257 552 q 257 588 247 604 q 237 620 218 620 z m 583 431 q 608 431 630 423 q 652 415 669 397 q 687 379 696 351 q 706 322 706 280 q 706 262 704 240 q 701 217 696 193 q 685 132 665 93 q 646 54 622 31 q 598 9 573 1 q 548 -7 527 -7 q 502 -7 480 1 q 459 10 443 29 q 427 48 418 77 q 409 106 409 147 q 409 166 411 188 q 413 210 418 232 q 429 296 448 335 q 467 375 490 396 q 513 417 537 424 q 562 431 583 431 z m 582 357 q 570 357 558 352 q 547 347 537 333 q 526 319 518 294 q 509 269 503 228 q 499 202 496 180 q 494 159 494 141 q 494 105 503 88 q 512 71 528 71 q 541 71 552 76 q 563 82 574 95 q 585 109 594 134 q 603 159 609 198 q 621 251 621 289 q 621 325 611 341 q 601 357 582 357 z m 194 0 l 116 0 l 550 688 l 630 688 z"},"m":{"x_min":0,"x_max":729,"ha":729,"o":"m 529 436 q 511 436 495 426 q 479 416 466 398 q 453 379 443 354 q 434 328 429 296 l 381 0 l 270 0 l 319 310 q 319 310 321 327 q 322 336 323 345 q 324 354 325 363 q 326 371 326 376 q 326 436 275 436 q 256 436 240 426 q 225 416 211 397 q 198 379 189 353 q 179 327 174 295 l 127 0 l 14 0 l 81 416 q 83 432 86 450 l 91 485 l 94 513 q 96 525 96 528 l 205 528 q 205 526 204 515 q 203 504 201 490 q 199 477 197 462 q 195 448 194 438 l 195 438 q 207 461 220 479 q 233 498 249 511 q 264 524 283 531 q 302 538 326 538 q 376 538 405 509 q 434 479 439 424 q 452 449 466 469 q 480 490 497 505 q 514 521 534 529 q 555 538 581 538 q 636 538 666 502 q 695 466 695 399 q 695 381 692 359 q 690 337 687 319 l 635 0 l 523 0 l 572 306 q 573 313 575 323 q 576 332 577 341 q 579 350 579 358 q 580 367 580 374 l 580 376 q 579 436 529 436 z"},"#":{"x_min":0,"x_max":456,"ha":456,"o":"m 376 421 l 348 259 l 435 259 l 435 186 l 336 186 l 303 0 l 241 0 l 272 186 l 150 186 l 118 0 l 57 0 l 88 186 l 26 186 l 26 259 l 101 259 l 129 421 l 46 421 l 46 493 l 142 493 l 175 681 l 237 681 l 204 493 l 327 493 l 360 681 l 423 681 l 389 493 l 455 493 l 455 421 z m 192 421 l 163 259 l 287 259 l 315 421 z"},",":{"x_min":0,"x_max":228,"ha":228,"o":"m 139 32 q 134 0 127 -27 q 120 -54 110 -77 q 101 -100 90 -119 q 79 -138 66 -155 l -8 -155 q 6 -138 19 -119 q 32 -100 42 -80 q 53 -60 60 -40 q 67 -20 70 0 l 19 0 l 42 149 l 158 149 z"},"n":{"x_min":0,"x_max":501,"ha":501,"o":"m 295 0 l 343 291 q 344 300 346 311 q 348 322 350 333 q 351 345 352 355 q 353 365 353 371 q 353 402 338 418 q 323 434 292 434 q 273 434 255 424 q 236 415 220 396 q 204 378 191 353 q 179 327 174 296 l 127 0 l 14 0 l 81 416 q 83 432 86 450 q 88 469 90 485 l 94 513 q 95 525 96 528 l 203 528 q 203 526 202 515 q 201 504 200 490 q 198 477 197 462 q 195 448 193 438 l 195 438 q 207 458 221 477 q 236 495 254 508 q 272 522 294 530 q 316 538 344 538 q 405 538 436 502 q 466 466 466 399 q 466 390 465 379 q 464 368 463 356 l 461 336 q 459 326 458 319 l 407 0 z"},"h":{"x_min":0,"x_max":501,"ha":501,"o":"m 241 725 l 209 527 q 208 517 206 505 q 204 493 201 481 l 197 458 q 195 447 193 438 l 195 438 q 207 458 221 477 q 236 495 254 508 q 272 522 294 530 q 316 538 344 538 q 405 538 436 502 q 466 466 466 399 q 466 390 465 379 q 464 368 463 356 l 461 336 q 459 326 458 319 l 407 0 l 295 0 l 343 291 q 344 300 346 311 q 348 322 350 333 q 351 345 352 355 q 353 365 353 371 q 353 402 338 418 q 322 434 292 434 q 273 434 255 424 q 236 415 220 396 q 204 378 191 353 q 179 327 174 296 l 127 0 l 14 0 l 128 725 z"},"z":{"x_min":0,"x_max":410,"ha":410,"o":"m -14 0 l 1 97 l 263 429 l 70 429 l 86 528 l 411 528 l 395 430 l 135 100 l 362 100 l 346 0 z"},"B":{"x_min":0,"x_max":592,"ha":592,"o":"m 124 688 l 358 688 q 410 688 448 677 q 486 667 512 646 q 537 625 549 596 q 562 566 562 529 q 562 493 552 465 q 543 437 526 416 q 509 396 485 382 q 461 368 432 360 q 460 354 482 341 q 503 327 518 307 q 533 288 540 263 q 547 238 547 210 q 547 149 527 109 q 507 68 473 44 q 438 20 393 10 q 347 0 296 0 l 15 0 z m 198 411 l 315 411 q 350 411 375 416 q 399 421 415 433 q 430 445 437 463 q 444 481 444 507 q 444 528 438 543 q 431 557 418 566 q 406 574 387 578 q 369 581 345 581 l 225 581 z m 149 107 l 280 107 q 318 107 346 112 q 375 117 393 129 q 411 141 420 162 q 429 182 429 213 q 429 257 402 281 q 375 304 313 304 l 181 304 z"},"K":{"x_min":0,"x_max":592,"ha":592,"o":"m 398 0 l 256 312 l 172 252 l 131 0 l 15 0 l 124 688 l 242 688 l 189 376 l 494 688 l 642 688 l 342 387 l 529 0 z"},"R":{"x_min":0,"x_max":592,"ha":592,"o":"m 404 0 l 312 261 l 174 261 l 132 0 l 15 0 l 124 688 l 385 688 q 439 688 477 672 q 515 656 540 629 q 564 602 575 566 q 586 530 586 491 q 586 445 573 409 q 560 374 537 348 q 515 322 486 306 q 457 291 425 285 l 535 0 z m 349 373 q 376 373 397 379 q 419 386 434 399 q 450 413 458 434 q 467 455 467 483 q 467 508 459 526 q 451 544 438 555 q 425 566 407 571 q 390 576 370 576 l 224 576 l 192 373 z"},"T":{"x_min":0,"x_max":501,"ha":501,"o":"m 358 577 l 266 0 l 148 0 l 240 577 l 58 577 l 76 688 l 559 688 l 541 577 z"},"P":{"x_min":0,"x_max":547,"ha":547,"o":"m 340 688 q 390 688 429 674 q 467 660 494 633 q 521 606 534 568 q 548 530 548 482 q 548 426 532 382 q 516 337 486 306 q 457 275 415 259 q 373 242 322 242 l 171 242 l 132 0 l 15 0 l 124 688 z m 188 353 l 304 353 q 366 353 397 381 q 428 410 428 474 q 428 501 421 520 q 414 540 401 552 q 388 564 369 570 q 351 576 329 576 l 224 576 z"},"|":{"x_min":0,"x_max":230,"ha":230,"o":"m 77 -208 l 77 725 l 182 725 l 182 -208 z"},"t":{"x_min":0,"x_max":273,"ha":273,"o":"m 224 4 q 209 -1 191 -5 q 172 -8 150 -8 q 127 -8 108 -1 q 88 6 75 20 q 61 33 54 54 q 46 75 46 102 q 46 124 49 145 q 51 166 53 179 l 94 436 l 34 436 l 49 528 l 114 528 l 169 652 l 239 652 l 220 528 l 301 528 l 287 436 l 205 436 l 163 174 q 162 165 160 151 q 159 137 159 127 q 160 106 169 96 q 179 86 194 86 q 204 86 213 88 q 223 90 237 93 z"},"M":{"x_min":0,"x_max":683,"ha":683,"o":"m 483 0 l 552 432 q 556 458 562 486 l 571 537 q 571 537 582 589 q 582 589 554 515 q 548 500 542 484 l 530 452 l 519 423 l 508 398 l 343 0 l 259 0 l 221 400 q 220 409 219 422 q 218 435 217 450 l 214 481 q 212 498 211 513 q 208 549 206 589 l 200 530 q 199 518 197 505 l 194 479 l 191 455 q 190 443 188 433 l 119 0 l 15 0 l 124 688 l 282 688 l 317 303 q 319 288 321 265 q 322 243 324 221 q 325 195 328 168 l 347 220 q 355 242 364 264 l 379 301 l 540 688 l 698 688 l 588 0 z"},"g":{"x_min":0,"x_max":501,"ha":501,"o":"m 172 -208 q 130 -208 100 -198 q 69 -189 48 -172 q 26 -154 14 -129 q 2 -103 -3 -69 l 110 -55 q 116 -87 135 -102 q 154 -117 186 -117 q 209 -117 227 -109 q 244 -102 256 -86 q 269 -70 277 -45 q 286 -21 292 13 q 295 27 297 42 l 301 70 q 303 84 305 98 l 304 98 q 292 79 280 60 q 268 42 251 27 q 234 13 213 5 q 191 -4 162 -4 q 130 -4 105 9 q 80 22 62 46 q 45 69 35 102 q 26 135 26 174 q 26 198 28 225 q 30 252 35 283 q 55 411 103 474 q 151 538 235 538 q 258 538 278 531 q 299 524 315 511 q 332 498 343 479 q 355 460 361 436 l 362 436 q 364 449 367 464 l 372 493 q 375 507 377 517 q 380 527 381 528 l 487 528 q 486 524 484 513 l 479 487 q 477 473 474 454 l 467 417 l 401 5 q 393 -48 376 -88 q 359 -127 333 -154 q 306 -181 266 -194 q 227 -208 172 -208 z m 333 268 q 336 285 338 303 q 339 322 339 335 q 339 363 333 383 q 327 403 316 417 q 306 431 291 437 q 276 444 259 444 q 239 444 222 436 q 206 429 193 410 q 180 392 170 361 q 160 330 152 284 q 149 259 146 235 q 144 211 144 193 q 144 143 161 120 q 179 96 213 96 q 230 96 249 106 q 268 115 284 136 q 300 157 313 189 q 326 222 333 268 z"},"j":{"x_min":0,"x_max":228,"ha":228,"o":"m 113 624 l 129 725 l 242 725 l 226 624 z m -21 -208 q -42 -208 -59 -205 q -76 -202 -88 -198 l -74 -106 q -68 -107 -62 -108 q -55 -108 -50 -108 q -37 -108 -27 -104 q -18 -101 -11 -91 q -4 -82 1 -67 q 5 -52 9 -29 l 98 528 l 211 528 l 116 -62 q 111 -94 100 -121 q 90 -147 73 -167 q 56 -186 33 -197 q 9 -208 -21 -208 z"},"i":{"x_min":0,"x_max":228,"ha":228,"o":"m 113 624 l 129 725 l 242 725 l 226 624 z m 14 0 l 98 528 l 211 528 l 126 0 z"},"y":{"x_min":0,"x_max":456,"ha":456,"o":"m 228 -28 q 206 -70 186 -104 q 166 -137 143 -160 q 121 -183 95 -195 q 69 -208 35 -208 q 14 -208 -2 -205 q -19 -203 -34 -199 l -19 -103 q -12 -105 -2 -106 q 8 -107 16 -107 q 31 -107 44 -103 q 57 -98 70 -86 q 82 -75 94 -57 q 106 -39 119 -12 l 130 12 l 45 528 l 161 528 l 190 286 q 191 280 192 268 l 195 238 l 198 204 l 200 170 l 203 141 q 204 128 204 123 l 210 141 l 221 169 l 234 202 l 247 236 l 259 265 l 266 284 l 370 528 l 490 528 z"},"@":{"x_min":0,"x_max":800,"ha":800,"o":"m 765 369 q 765 298 750 240 q 735 182 709 140 q 683 98 647 74 q 612 51 573 51 q 556 51 542 56 q 527 61 517 72 q 507 82 502 98 q 496 114 496 135 q 496 142 497 151 q 498 160 499 167 l 496 167 q 488 146 474 125 q 460 104 442 88 q 423 71 402 61 q 380 51 356 51 q 318 51 292 67 q 267 84 252 111 q 237 138 230 171 q 224 205 224 239 q 224 295 238 349 q 251 402 277 444 q 302 486 340 512 q 377 538 424 538 q 465 538 491 515 q 517 492 530 453 l 532 453 l 548 527 l 610 527 l 563 280 q 557 241 553 211 q 549 181 549 163 q 549 138 558 128 q 567 118 580 118 q 604 118 626 136 q 648 155 666 188 q 683 221 694 267 q 705 313 705 368 q 705 429 688 482 q 672 535 640 573 q 607 612 560 634 q 513 656 451 656 q 398 656 353 640 q 309 625 272 597 q 236 569 208 531 q 181 492 162 446 q 144 400 134 348 q 125 295 125 240 q 125 197 132 157 q 139 118 152 83 q 166 48 187 20 q 208 -9 237 -30 q 265 -50 301 -62 q 337 -73 382 -73 q 417 -73 448 -67 q 480 -62 510 -51 q 539 -41 566 -27 q 593 -13 618 2 l 643 -57 q 619 -74 591 -89 q 563 -105 531 -117 q 498 -129 460 -136 q 423 -144 379 -144 q 327 -144 283 -130 q 239 -116 203 -91 q 168 -65 141 -30 q 114 5 96 47 q 78 90 69 139 q 60 188 60 240 q 60 308 73 370 q 85 433 109 486 q 133 540 167 584 q 202 628 245 659 q 289 690 340 708 q 392 725 451 725 q 532 725 592 696 q 651 667 689 618 q 728 569 747 505 q 765 440 765 369 z m 506 367 q 506 390 500 409 q 494 428 482 442 q 471 456 456 464 q 440 472 421 472 q 399 472 380 462 q 362 452 347 435 q 333 417 322 395 q 312 372 304 346 q 297 320 294 293 q 291 266 291 240 q 291 184 310 152 q 329 120 369 120 q 388 120 407 131 q 427 142 443 164 q 460 186 474 218 q 488 250 496 291 q 498 299 500 310 q 502 320 503 331 q 504 341 505 350 q 506 359 506 367 z"},".":{"x_min":0,"x_max":228,"ha":228,"o":"m 19 0 l 42 149 l 158 149 l 134 0 z"},"p":{"x_min":0,"x_max":501,"ha":501,"o":"m 292 443 q 271 443 251 435 q 232 427 216 407 q 200 388 188 354 q 175 321 167 271 q 164 249 162 230 q 160 212 160 196 q 160 168 166 148 q 172 127 182 113 q 193 99 208 92 q 223 84 241 84 q 261 84 278 92 q 294 100 308 119 q 321 138 331 171 q 341 203 349 252 q 352 277 354 299 q 356 320 356 339 q 356 391 341 417 q 325 443 292 443 z m 197 446 q 211 470 226 487 q 241 504 258 516 q 275 527 295 533 q 315 538 339 538 q 372 538 397 526 q 422 514 439 491 q 457 469 466 437 q 475 405 475 365 q 475 336 473 308 q 471 280 466 252 q 455 183 438 133 q 420 83 395 52 q 370 20 337 5 q 305 -10 265 -10 q 215 -10 184 16 q 152 41 140 87 l 139 87 q 137 66 134 42 q 130 18 126 -5 l 94 -208 l -18 -208 l 79 407 q 79 407 84 436 q 86 448 87 460 q 88 473 90 488 q 92 504 95 528 l 205 528 q 205 525 204 516 q 204 506 202 493 q 201 481 199 468 q 198 455 196 446 z"},"X":{"x_min":0,"x_max":547,"ha":547,"o":"m 88 688 l 212 688 l 301 458 l 462 688 l 588 688 l 348 357 l 495 0 l 372 0 l 270 260 l 88 0 l -38 0 l 224 359 z"},"*":{"x_min":0,"x_max":319,"ha":319,"o":"m 229 554 l 324 605 l 351 509 l 251 479 l 325 375 l 251 316 l 193 439 l 134 316 l 59 376 l 135 479 l 35 509 l 62 605 l 158 554 l 151 688 l 237 688 z"},"Y":{"x_min":0,"x_max":547,"ha":547,"o":"m 334 282 l 290 0 l 172 0 l 217 282 l 69 688 l 186 688 l 290 393 l 479 688 l 608 688 z"},"c":{"x_min":0,"x_max":456,"ha":456,"o":"m 215 84 q 248 84 270 110 q 291 136 304 186 l 413 162 q 403 123 386 91 q 370 60 345 37 q 320 15 286 2 q 252 -10 208 -10 q 162 -10 127 5 q 93 21 70 48 q 48 76 37 114 q 25 152 25 198 q 25 217 27 240 q 28 263 32 285 q 42 339 58 379 q 73 419 92 447 q 111 475 133 493 q 155 511 178 521 q 202 531 226 534 q 250 538 272 538 q 315 538 346 524 q 377 510 398 486 q 419 461 430 429 q 441 397 444 362 l 331 351 q 329 395 312 419 q 296 444 264 444 q 241 444 225 435 q 208 426 195 406 q 182 386 172 355 q 162 324 152 281 q 151 271 149 260 q 148 249 146 238 q 145 227 144 217 q 144 207 144 199 q 144 140 162 112 q 180 84 215 84 z"},"!":{"x_min":0,"x_max":273,"ha":273,"o":"m 169 208 l 77 208 l 141 688 l 259 688 z m 32 0 l 52 132 l 167 132 l 147 0 z"},"/":{"x_min":0,"x_max":228,"ha":228,"o":"m -30 -20 l 205 725 l 300 725 l 66 -20 z"},"[":{"x_min":0,"x_max":273,"ha":273,"o":"m -21 -208 l 126 725 l 343 725 l 329 632 l 218 632 l 99 -114 l 210 -114 l 195 -208 z"},"6":{"x_min":0,"x_max":456,"ha":456,"o":"m 213 -10 q 170 -10 138 7 q 105 24 83 56 q 61 88 50 134 q 38 180 38 238 q 38 337 57 422 q 76 506 110 567 q 145 629 193 664 q 241 698 298 698 q 326 698 353 691 q 380 684 403 666 q 425 647 441 617 q 456 586 460 540 l 354 520 q 349 556 334 573 q 319 590 292 590 q 247 590 212 534 q 178 478 163 364 q 184 399 216 421 q 249 443 291 443 q 322 443 348 431 q 374 419 393 396 q 411 373 421 339 q 432 305 432 260 q 432 206 416 157 q 401 108 372 71 q 344 34 303 12 q 263 -10 213 -10 z m 148 209 q 148 158 167 128 q 187 98 224 98 q 244 98 261 107 q 278 117 291 136 q 303 155 310 182 q 317 209 317 244 q 317 269 312 288 q 306 306 297 318 q 287 330 274 336 q 261 342 246 342 q 228 342 210 333 q 192 325 179 309 q 165 292 156 268 q 148 243 148 209 z"},"r":{"x_min":0,"x_max":319,"ha":319,"o":"m 338 417 q 329 419 318 421 q 308 424 292 424 q 243 424 212 381 q 181 339 167 251 l 126 0 l 14 0 l 79 405 q 82 422 84 439 l 88 473 l 92 503 q 94 518 95 528 l 203 528 q 202 518 200 503 q 198 488 197 473 q 195 458 193 444 q 191 430 190 420 l 192 420 q 206 451 219 473 q 232 495 247 510 q 262 524 278 531 q 295 538 315 538 q 320 538 325 537 q 331 537 337 536 q 343 535 348 533 q 353 532 356 531 z"},"2":{"x_min":0,"x_max":456,"ha":456,"o":"m -13 0 l 2 95 q 21 136 46 169 q 70 203 97 231 q 124 259 151 284 l 206 331 l 255 374 q 278 396 295 418 q 312 441 322 466 q 332 490 332 519 q 332 539 327 552 q 322 565 314 573 q 305 582 293 585 q 281 589 267 589 q 251 589 238 584 q 224 580 213 570 q 201 560 192 542 q 184 525 178 499 l 71 528 q 81 567 97 599 q 114 630 139 652 q 164 674 197 686 q 231 698 275 698 q 320 698 353 686 q 385 674 406 652 q 428 630 438 599 q 448 568 448 529 q 448 491 438 458 q 428 426 410 398 q 393 371 371 346 q 348 322 322 299 l 271 255 q 244 233 219 211 q 195 188 174 164 q 152 140 137 113 l 399 113 l 381 0 z"},"{":{"x_min":0,"x_max":319,"ha":319,"o":"m 155 -208 q 132 -208 113 -200 q 94 -192 81 -178 q 67 -164 60 -144 q 53 -124 53 -99 q 53 -90 54 -76 q 55 -62 57 -49 l 82 101 q 84 118 84 134 q 84 155 79 169 q 74 184 64 193 q 54 202 40 207 q 25 211 8 211 l 23 305 q 44 306 62 312 q 80 318 94 331 q 108 344 118 365 q 127 386 132 416 l 159 581 q 171 652 204 688 q 238 725 299 725 l 377 725 l 362 632 l 332 632 q 313 632 301 625 q 289 619 280 607 q 271 594 266 575 q 260 557 256 532 l 231 380 q 228 356 218 336 q 208 315 194 300 q 181 285 164 274 q 147 264 129 260 l 129 258 q 144 253 155 245 q 167 237 176 225 q 185 213 189 197 q 194 182 194 163 q 194 156 194 150 q 193 144 192 137 l 166 -26 q 165 -33 164 -44 q 163 -55 163 -63 q 163 -89 176 -102 q 189 -114 211 -114 l 243 -114 l 229 -208 z"},"9":{"x_min":0,"x_max":456,"ha":456,"o":"m 327 319 q 315 301 302 287 q 288 273 273 264 q 257 255 240 250 q 222 246 200 246 q 167 246 141 260 q 115 273 97 299 q 79 324 69 359 q 59 394 59 436 q 59 491 75 539 q 91 587 120 622 q 149 658 189 678 q 229 698 277 698 q 315 698 347 683 q 379 668 403 638 q 426 609 439 566 q 453 523 453 467 q 453 454 452 438 q 451 421 449 403 q 448 385 446 367 q 444 348 441 332 q 426 240 400 175 q 375 110 342 69 q 309 28 271 9 q 232 -10 192 -10 q 158 -10 128 0 q 99 10 77 30 q 55 50 40 81 q 25 111 19 152 l 129 175 q 134 139 151 119 q 168 99 199 99 q 217 99 235 108 q 253 118 271 142 q 288 167 302 210 q 317 252 327 319 z m 342 493 q 342 513 337 531 q 333 549 323 562 q 313 576 301 583 q 288 591 271 591 q 250 591 232 581 q 214 571 201 552 q 188 533 180 504 q 173 476 173 439 q 173 417 178 400 q 184 383 193 371 q 203 359 216 353 q 229 347 245 347 q 260 347 275 352 q 290 357 303 369 q 315 381 325 401 q 335 420 339 449 q 341 461 342 472 q 342 482 342 493 z"}," ":{"x_min":0,"x_max":228,"ha":228,"o":""},"I":{"x_min":0,"x_max":228,"ha":228,"o":"m 15 0 l 124 688 l 242 688 l 132 0 z"},"H":{"x_min":0,"x_max":592,"ha":592,"o":"m 382 0 l 430 295 l 179 295 l 132 0 l 15 0 l 124 688 l 242 688 l 198 414 l 449 414 l 492 688 l 606 688 l 496 0 z"},"4":{"x_min":0,"x_max":456,"ha":456,"o":"m 350 140 l 328 0 l 221 0 l 243 140 l -14 140 l 3 241 l 290 688 l 438 688 l 367 242 l 442 242 l 425 140 z m 300 498 q 301 505 304 518 q 306 530 310 543 l 315 569 q 318 582 320 589 l 312 572 l 300 550 l 286 526 q 279 515 273 506 l 104 242 l 259 242 z"},"~":{"x_min":0,"x_max":479,"ha":479,"o":"m 356 252 q 326 252 297 262 q 268 272 238 285 q 211 296 190 302 q 168 308 149 308 q 134 308 120 305 q 107 302 95 297 q 83 291 71 283 q 59 275 47 265 l 47 369 q 68 388 95 399 q 122 410 156 410 q 188 410 219 399 q 249 389 279 376 q 300 367 322 360 q 344 353 364 353 q 391 353 417 365 q 442 377 463 398 l 463 291 q 450 280 438 273 q 426 265 413 260 q 400 256 386 254 q 373 252 356 252 z"},"D":{"x_min":0,"x_max":592,"ha":592,"o":"m 293 688 q 359 688 410 669 q 461 651 496 614 q 531 577 550 522 q 568 467 568 394 q 568 329 556 275 q 544 220 522 177 q 500 133 470 100 q 440 67 404 45 q 369 22 328 11 q 288 0 246 0 l 15 0 l 124 688 z m 150 111 l 242 111 q 289 111 328 129 q 368 147 396 182 q 425 217 442 269 q 458 320 458 388 q 458 436 447 471 q 436 506 415 530 q 394 553 363 565 q 333 577 294 577 l 224 577 z"},"^":{"x_min":0,"x_max":479,"ha":479,"o":"m 385 251 l 255 618 l 125 251 l 34 251 l 190 688 l 320 688 l 477 251 z"},"0":{"x_min":0,"x_max":456,"ha":456,"o":"m 290 698 q 323 698 352 687 q 381 676 402 650 q 423 624 436 580 q 448 536 448 471 q 448 440 444 405 q 440 370 433 325 q 421 260 406 209 q 391 159 373 122 q 354 85 333 60 q 312 35 288 19 q 265 3 241 -3 q 216 -10 191 -10 q 154 -10 125 3 q 95 16 75 44 q 55 72 44 116 q 34 160 34 222 q 34 251 38 286 q 41 320 48 364 q 59 433 74 485 q 90 537 109 574 q 128 611 150 635 q 171 659 195 673 q 218 687 242 693 q 267 698 290 698 z m 199 98 q 221 98 239 110 q 257 121 273 148 q 288 176 300 221 q 312 267 323 334 q 330 380 334 414 q 339 448 339 477 q 339 531 324 561 q 310 591 278 591 q 254 591 236 579 q 218 568 204 541 q 190 514 179 468 q 168 423 159 354 q 153 312 148 272 q 144 231 144 203 q 144 181 146 161 q 148 142 155 128 q 161 114 172 106 q 183 98 199 98 z"},"F":{"x_min":0,"x_max":501,"ha":501,"o":"m 224 577 l 190 364 l 458 364 l 440 252 l 172 252 l 132 0 l 15 0 l 124 688 l 519 688 l 501 577 z"},"`":{"x_min":0,"x_max":273,"ha":273,"o":"m 239 578 l 116 712 l 119 733 l 222 733 l 300 593 l 298 578 z"},"k":{"x_min":0,"x_max":456,"ha":456,"o":"m 292 0 l 216 243 l 160 206 l 126 0 l 14 0 l 129 725 l 242 725 l 175 310 l 361 528 l 490 528 l 301 322 l 411 0 z"},"u":{"x_min":0,"x_max":501,"ha":501,"o":"m 205 528 l 158 238 q 156 229 154 217 q 152 206 151 195 q 149 184 148 174 q 147 164 147 157 q 147 126 163 110 q 178 94 208 94 q 227 94 246 104 q 265 114 281 132 q 297 150 310 176 q 322 201 326 232 l 374 528 l 486 528 l 420 113 q 417 96 415 78 q 412 60 410 43 l 407 15 q 405 3 405 0 l 297 0 q 297 2 298 13 q 299 24 301 38 q 302 52 304 66 q 306 81 307 90 l 306 90 q 294 70 280 52 q 265 34 247 20 q 229 6 207 -1 q 184 -9 157 -9 q 96 -9 65 26 q 34 62 34 129 q 34 138 35 149 q 36 161 37 172 l 40 193 q 41 203 42 209 l 93 528 z"},"]":{"x_min":0,"x_max":273,"ha":273,"o":"m -70 -208 l -55 -114 l 56 -114 l 175 632 l 63 632 l 79 725 l 295 725 l 147 -208 z"},"U":{"x_min":0,"x_max":592,"ha":592,"o":"m 275 103 q 307 103 332 111 q 356 120 374 139 q 392 158 404 188 q 416 219 423 264 l 491 688 l 608 688 l 540 259 q 529 189 507 139 q 485 88 451 55 q 418 22 373 6 q 327 -10 269 -10 q 217 -10 176 5 q 135 19 106 47 q 78 75 63 116 q 48 157 48 210 q 48 221 49 234 q 49 248 51 261 l 54 288 q 55 301 57 310 l 116 688 l 234 688 l 173 292 q 170 276 168 253 q 166 229 166 208 q 166 182 174 162 q 182 143 196 129 q 211 116 231 110 q 251 103 275 103 z"},"o":{"x_min":0,"x_max":501,"ha":501,"o":"m 475 333 q 475 254 455 190 q 436 126 401 82 q 366 38 318 14 q 271 -10 214 -10 q 171 -10 136 5 q 102 19 77 47 q 52 74 39 114 q 25 154 25 205 q 25 280 44 342 q 62 403 96 447 q 130 490 178 514 q 225 538 282 538 q 329 538 365 524 q 401 510 426 484 q 450 458 462 420 q 475 382 475 333 z m 357 323 q 357 355 351 378 q 345 401 334 416 q 324 430 308 437 q 293 444 273 444 q 256 444 238 439 q 220 434 204 417 q 188 401 174 372 q 161 342 151 293 q 147 270 145 249 q 144 228 144 210 q 144 175 150 151 q 156 127 167 112 q 178 97 193 91 q 208 84 227 84 q 245 84 262 89 q 280 94 296 110 q 312 125 325 155 q 338 185 348 234 q 352 260 354 281 q 356 302 357 323 z"},"N":{"x_min":0,"x_max":592,"ha":592,"o":"m 354 0 l 204 552 q 204 552 199 511 q 197 493 195 473 q 192 453 189 436 l 119 0 l 15 0 l 124 688 l 264 688 l 415 131 q 415 131 420 171 q 422 189 425 211 q 428 233 431 256 l 501 688 l 606 688 l 496 0 z"},"+":{"x_min":0,"x_max":479,"ha":479,"o":"m 300 278 l 300 79 l 210 79 l 210 278 l 50 278 l 50 387 l 210 387 l 210 586 l 300 586 l 300 387 l 461 387 l 461 278 z"},"G":{"x_min":0,"x_max":638,"ha":638,"o":"m 561 85 q 534 63 506 45 q 478 27 446 15 q 414 3 377 -3 q 340 -9 296 -9 q 231 -9 183 13 q 135 35 103 74 q 71 113 56 167 q 40 221 40 285 q 40 376 64 453 q 87 529 131 583 q 175 638 238 668 q 300 698 377 698 q 430 698 470 683 q 510 667 539 641 q 568 614 586 580 q 604 545 613 507 l 500 469 q 495 492 485 513 q 476 534 460 550 q 444 566 422 575 q 400 585 371 585 q 320 585 281 562 q 241 540 214 500 q 188 461 174 407 q 160 353 160 289 q 160 251 168 218 q 176 184 194 158 q 211 133 239 118 q 267 103 306 103 q 331 103 354 107 q 376 111 396 117 q 415 124 431 132 q 447 141 460 150 l 479 261 l 341 261 l 357 363 l 603 363 z"},"q":{"x_min":0,"x_max":501,"ha":501,"o":"m 359 441 q 361 453 364 467 q 367 480 369 492 q 372 504 375 514 q 377 523 378 528 l 486 528 q 484 520 479 485 l 462 388 l 368 -208 l 255 -208 l 289 3 q 289 3 296 39 l 304 80 l 302 80 q 287 57 272 40 q 257 23 240 12 q 222 0 202 -5 q 182 -10 158 -10 q 125 -10 101 3 q 76 17 58 40 q 41 64 32 97 q 23 130 23 170 q 23 192 25 219 q 27 245 32 276 q 43 346 63 396 q 83 445 109 477 q 135 509 166 523 q 197 538 232 538 q 259 538 279 533 q 298 527 313 516 q 328 504 339 485 q 350 467 357 441 z m 208 84 q 229 84 248 92 q 267 100 283 120 q 299 140 311 173 q 324 207 331 257 q 334 279 336 297 q 337 316 337 332 q 337 387 321 416 q 304 444 268 444 q 247 444 229 437 q 210 429 195 410 q 180 391 169 359 q 157 326 150 276 q 146 250 144 229 q 143 207 143 188 q 143 165 146 145 q 150 126 158 112 q 166 99 178 91 q 190 84 208 84 z"},"d":{"x_min":0,"x_max":501,"ha":501,"o":"m 300 78 q 285 55 270 39 q 255 22 238 11 q 221 0 201 -5 q 182 -10 157 -10 q 125 -10 100 3 q 75 17 58 42 q 41 66 32 100 q 23 133 23 173 q 23 195 25 220 q 27 246 32 276 q 43 346 62 395 q 82 445 107 477 q 133 508 165 523 q 197 538 232 538 q 262 538 283 531 q 304 523 319 510 q 334 497 344 479 q 353 461 358 441 l 360 441 q 361 451 363 471 q 366 490 371 521 l 404 725 l 515 725 l 420 113 q 416 83 413 55 q 410 26 408 0 l 295 0 q 295 4 296 12 q 296 20 297 30 q 297 41 299 53 q 300 65 302 78 z m 206 84 q 227 84 246 92 q 266 100 281 120 q 297 140 310 173 q 322 207 331 257 q 334 279 336 298 q 337 316 337 333 q 337 391 318 418 q 299 444 262 444 q 243 444 226 437 q 208 429 194 409 q 180 390 168 358 q 157 325 149 276 q 146 251 144 231 q 142 210 142 192 q 142 140 157 112 q 172 84 206 84 z"},"1":{"x_min":0,"x_max":456,"ha":456,"o":"m 13 0 l 30 113 l 170 113 l 242 562 l 89 458 l 108 576 l 267 688 l 375 688 l 283 113 l 412 113 l 395 0 z"},"5":{"x_min":0,"x_max":456,"ha":456,"o":"m 126 688 l 466 688 l 448 575 l 210 575 l 176 412 q 183 420 193 428 q 203 436 215 442 q 228 448 243 452 q 259 456 278 456 q 309 456 336 443 q 363 430 383 404 q 403 378 415 340 q 426 302 426 253 q 426 195 410 146 q 395 98 365 63 q 335 29 292 10 q 250 -10 195 -10 q 150 -10 117 3 q 84 16 62 39 q 39 62 26 93 q 13 124 8 161 l 121 183 q 125 162 130 147 q 136 131 145 121 q 155 111 169 106 q 184 101 204 101 q 231 101 251 111 q 271 122 285 141 q 298 160 305 185 q 312 209 312 237 q 312 266 306 286 q 300 307 290 320 q 279 333 266 339 q 252 345 236 345 q 210 345 190 334 q 170 323 155 301 l 45 301 z"}}}
